<?xml version="1.0" standalone="no"?>
<!DOCTYPE svg PUBLIC "-//W3C//DTD SVG 1.1//EN" "http://www.w3.org/Graphics/SVG/1.1/DTD/svg11.dtd" >
<svg xmlns="http://www.w3.org/2000/svg">
<metadata>Generated by IcoMoon</metadata>
<defs>
<font id="icomoon" horiz-adv-x="1024">
<font-face units-per-em="1024" ascent="960" descent="-64" />
<missing-glyph horiz-adv-x="1024" />
<glyph unicode="&#x20;" horiz-adv-x="512" d="" />
<glyph unicode="&#xe900;" glyph-name="facebook" d="M512.009 866.853c-245.646 0-444.782-199.172-444.782-444.782 0-245.646 199.136-444.745 444.782-444.745s444.782 199.1 444.782 444.745c0 245.61-199.154 444.782-444.782 444.782zM629.72 423.932h-77.017c0-123.076 0-274.672 0-274.672h-114.153c0 0 0 150.043 0 274.672h-54.295v96.976h54.295v62.838c0 44.975 21.35 115.183 115.219 115.183l84.531-0.325v-94.194c0 0-51.405 0-61.375 0-10.025 0-24.203-5.003-24.203-26.389v-57.131h87.024l-10.025-96.958z" />
<glyph unicode="&#xe901;" glyph-name="instagram" d="M695.611 519.427v81.948l-81.948-0.289 0.271-81.93zM509.805 330.207c46.926 0 85.127 38.165 85.127 85.091 0 18.514-6.033 35.673-16.13 49.635-15.443 21.422-40.604 35.492-68.998 35.492s-53.518-14.070-68.998-35.492c-10.097-13.962-16.093-31.121-16.093-49.635 0-46.926 38.165-85.091 85.091-85.091zM512.027 866.835c-245.646 0-444.782-199.1-444.782-444.745s199.136-444.782 444.782-444.782c245.61 0 444.745 199.136 444.745 444.782s-199.154 444.745-444.745 444.745zM751.586 464.933v-197.98c0-51.513-41.94-93.418-93.454-93.418h-296.672c-51.531 0-93.436 41.904-93.436 93.418v296.672c0 51.531 41.904 93.436 93.436 93.436h296.672c51.513 0 93.454-41.904 93.454-93.436v-98.692zM642.021 415.298c0-72.881-59.298-132.215-132.215-132.215s-132.179 59.334-132.179 132.215c0 17.575 3.486 34.282 9.699 49.635h-72.177v-197.98c0-25.54 20.772-46.311 46.311-46.311h296.672c25.54 0 46.311 20.772 46.311 46.311v197.98h-72.213c6.268-15.353 9.79-32.078 9.79-49.635z" />
<glyph unicode="&#xe902;" glyph-name="twitter" d="M512.027 866.853c-245.646 0-444.782-199.172-444.782-444.782 0-245.646 199.136-444.745 444.782-444.745s444.745 199.1 444.745 444.745c0 245.61-199.118 444.782-444.745 444.782zM736.071 511.751c0.235-4.805 0.325-9.627 0.325-14.504 0-148.128-112.744-318.906-318.906-318.906-63.29 0-122.227 18.55-171.826 50.339 8.778-1.030 17.683-1.553 26.732-1.553 52.525 0 100.859 17.918 139.205 47.973-49.039 0.921-90.419 33.343-104.688 77.866 6.828-1.337 13.854-2.005 21.079-2.005 10.223 0 20.121 1.337 29.532 3.919-51.297 10.295-89.932 55.632-89.932 109.89 0 0.488 0 0.957 0.018 1.445 15.1-8.399 32.386-13.438 50.773-14.034-30.092 20.139-49.87 54.403-49.87 93.309 0 20.537 5.527 39.809 15.172 56.354 55.288-67.805 137.887-112.437 231.052-117.097-1.915 8.182-2.908 16.762-2.908 25.54 0 61.881 50.177 112.076 112.094 112.076 32.241 0 61.357-13.619 81.804-35.384 25.54 5.003 49.527 14.359 71.183 27.202-8.399-26.19-26.154-48.154-49.31-62.008 22.704 2.709 44.307 8.742 64.392 17.647-14.992-22.524-34.011-42.266-55.921-58.070z" />
<glyph unicode="&#xe903;" glyph-name="google-plus" d="M429.176 454.981c11.361 0 20.952 4.479 28.358 12.951 11.65 13.222 16.762 34.968 13.727 58.070-5.437 41.308-34.896 75.608-65.692 76.511h-1.228c-10.91 0-20.609-4.443-28.014-12.914-11.506-13.095-16.31-33.794-13.294-56.824 5.401-41.236 35.492-76.873 65.656-77.794h0.488zM462.79 330.587c-3.034 2.041-6.177 4.19-9.41 6.412-9.483 2.926-19.579 4.443-29.875 4.588h-1.3c-47.413 0-89.029-28.755-89.029-61.52 0-35.601 35.619-63.543 81.117-63.543 60.003 0 90.419 20.681 90.419 61.484 0 3.883-0.452 7.875-1.373 11.849-4.064 15.895-18.604 25.775-40.55 40.73zM512.009 866.853c-245.664 0-444.782-199.1-444.782-444.745s199.136-444.782 444.782-444.782c245.61 0 444.745 199.136 444.745 444.782s-199.154 444.745-444.745 444.745zM471.532 180.092c-17.737-5.112-36.865-7.731-56.968-7.731-22.361 0-43.891 2.583-63.94 7.658-38.834 9.772-67.553 28.358-80.919 52.29-5.78 10.368-8.706 21.386-8.706 32.801 0 11.777 2.818 23.698 8.363 35.528 21.313 45.336 77.36 75.807 139.476 75.807 0.632 0 1.228 0 1.806 0-5.039 8.887-7.514 18.098-7.514 27.762 0 4.841 0.632 9.736 1.897 14.703-65.132 1.517-113.9 49.219-113.9 112.112 0 44.451 35.492 87.692 86.265 105.194 15.208 5.256 30.688 7.929 45.932 7.929h139.314c4.768 0 8.923-3.071 10.404-7.586 1.517-4.552-0.144-9.483-3.992-12.282l-31.157-22.542c-1.878-1.337-4.136-2.077-6.448-2.077h-11.144c14.432-17.249 22.867-41.832 22.867-69.503 0-30.543-15.443-59.407-43.53-81.388-21.693-16.906-22.578-21.512-22.578-31.23 0.289-5.328 15.425-22.614 32.060-34.39 38.87-27.509 53.338-54.439 53.338-99.487 0-46.871-35.709-87.547-90.925-103.569zM786.211 419.073c0-6.033-4.931-10.928-10.964-10.928h-79.167v-79.203c0-6.069-4.895-10.964-10.964-10.964h-22.542c-6.069 0-10.964 4.895-10.964 10.964v79.203h-79.221c-5.997 0-10.928 4.895-10.928 10.928v22.578c0 6.033 4.931 10.964 10.928 10.964h79.203v79.167c0 6.069 4.895 10.964 10.964 10.964h22.542c6.069 0 10.964-4.895 10.964-10.964v-79.167h79.167c6.033 0 10.964-4.931 10.964-10.964v-22.578z" />
<glyph unicode="&#xe904;" glyph-name="youtube" d="M322.103 384.665h32.205v-159.977h31.121v159.977h32.169v27.238h-95.495zM513.201 517.603c4.227 0 7.586 1.12 10.061 3.414 2.475 2.366 3.739 5.581 3.739 9.627v82.905c0 3.323-1.264 6.033-3.811 8.038-2.547 2.077-5.852 3.107-9.988 3.107-3.775 0-6.846-1.030-9.248-3.107-2.366-2.005-3.522-4.732-3.522-8.038v-82.905c0-4.154 1.102-7.369 3.323-9.627 2.186-2.294 5.364-3.414 9.447-3.414zM581.819 364.489c-4.299 0-8.543-1.102-12.734-3.287-4.136-2.186-8.11-5.437-11.813-9.627v60.328h-27.906v-187.215h27.906v10.584c3.594-4.263 7.55-7.369 11.777-9.392 4.19-2.005 9.031-2.998 14.468-2.998 8.146 0 14.468 2.583 18.73 7.803 4.335 5.256 6.52 12.734 6.52 22.505v76.656c0 11.325-2.294 19.941-6.954 25.793-4.588 5.888-11.253 8.85-19.995 8.85zM580.302 257.001c0-4.443-0.813-7.586-2.402-9.519-1.589-1.969-4.064-2.926-7.442-2.926-2.33 0-4.516 0.524-6.665 1.481-2.113 0.957-4.335 2.637-6.52 4.877v86.048c1.878 1.933 3.775 3.36 5.672 4.227 1.897 0.957 3.883 1.373 5.852 1.373 3.703 0 6.593-1.192 8.616-3.558 1.933-2.438 2.89-5.961 2.89-10.657v-71.346zM480.96 257.85c-2.583-2.962-5.437-5.401-8.543-7.369-3.107-1.933-5.708-2.89-7.694-2.89-2.619 0-4.479 0.704-5.672 2.186-1.12 1.445-1.734 3.811-1.734 7.062v105.971h-27.581v-115.508c0-8.254 1.626-14.323 4.841-18.514 3.287-4.1 8.038-6.141 14.432-6.141 5.184 0 10.548 1.409 16.057 4.371 5.509 2.998 10.801 7.225 15.913 12.806v-15.136h27.617v138.104h-27.617v-104.941zM512.009 866.889c-245.646 0-444.782-199.136-444.782-444.782 0-245.682 199.136-444.782 444.782-444.782s444.782 199.1 444.782 444.782c0 245.646-199.154 444.782-444.782 444.782zM583.86 647.217h31.049v-116.664c0-3.631 0.704-6.213 2.005-7.803 1.264-1.626 3.396-2.475 6.322-2.475 2.258 0 5.148 1.102 8.67 3.215 3.45 2.186 6.665 4.895 9.555 8.254v115.472h31.121v-152.156h-31.121v16.798c-5.672-6.177-11.65-10.928-17.882-14.143-6.177-3.215-12.174-4.877-18.026-4.877-7.189 0-12.589 2.294-16.256 6.846-3.594 4.479-5.437 11.253-5.437 20.392v127.14zM468.443 612.429c0 11.74 4.154 21.133 12.517 28.195 8.399 6.918 19.652 10.44 33.758 10.44 12.878 0 23.391-3.703 31.645-11.036 8.182-7.333 12.282-16.87 12.282-28.502v-78.571c0-13.059-4.028-23.246-12.029-30.615-8.11-7.369-19.182-11.072-33.307-11.072-13.583 0-24.474 3.811-32.638 11.397-8.146 7.694-12.246 17.99-12.246 30.904v78.86zM383.767 701.295l22.722-82.4h2.222l21.62 82.4h35.564l-40.712-120.692v-85.561h-35.005v81.749l-41.669 124.503h35.257zM790.871 267.206c0-55.036-44.632-99.703-99.667-99.703h-346.361c-55.072 0-99.703 44.668-99.703 99.703v80.16c0 55.072 44.632 99.703 99.703 99.703h346.361c55.036 0 99.667-44.632 99.667-99.703v-80.16zM665.176 366.223c-12.391 0-22.397-3.739-30.236-11.325-7.803-7.514-11.74-17.322-11.74-29.207v-62.098c0-13.33 3.594-23.77 10.693-31.32 7.098-7.586 16.834-11.397 29.207-11.397 13.763 0 24.095 3.558 30.977 10.693 6.99 7.189 10.404 17.845 10.404 32.024v7.098h-28.394v-6.286c0-8.146-0.957-13.402-2.745-15.768s-5.003-3.558-9.591-3.558c-4.407 0-7.514 1.373-9.356 4.154-1.806 2.854-2.673 7.875-2.673 15.172v25.991h52.778v35.275c0 13.059-3.36 23.065-10.151 30.092-6.809 6.972-16.545 10.458-29.17 10.458zM676.086 311.892h-24.384v13.962c0 5.78 0.885 9.988 2.818 12.391 1.933 2.583 5.075 3.811 9.483 3.811 4.154 0 7.297-1.228 9.176-3.811 1.897-2.402 2.89-6.593 2.89-12.391v-13.962z" />
<glyph unicode="&#xe905;" glyph-name="snapchat" d="M527.532 881.004c-245.635 0-444.778-199.105-444.778-444.742s199.143-444.778 444.778-444.778c245.619 0 444.76 199.142 444.76 444.778s-199.142 444.742-444.76 444.742zM804.069 290.569c-3.305-7.734-18.214-18.698-70.355-26.755-4.259-0.654-5.912-6.204-8.453-17.844-0.923-4.237-1.86-8.397-3.148-12.773-1.111-3.798-3.477-5.574-7.458-5.574h-0.648c-2.763 0-6.69 0.493-11.668 1.47-8.827 1.727-18.725 3.318-31.318 3.318-7.355 0-14.963-0.643-22.61-1.907-15.644-2.608-28.925-11.986-42.984-21.924-20.437-14.453-41.53-29.364-74.403-29.364-1.431 0-2.836 0.042-4.239 0.108h-0.002c-0.896-0.070-1.831-0.108-2.769-0.108-32.864 0-53.959 14.91-74.356 29.333-14.085 9.952-27.375 19.348-43.035 21.956-7.64 1.264-15.248 1.907-22.597 1.907-13.243 0-23.688-2.045-31.316-3.537-4.635-0.907-8.634-1.685-11.672-1.685-3.175 0-6.614 0.686-8.11 5.794-1.3 4.425-2.24 8.711-3.143 12.858-2.33 10.671-3.983 17.233-8.455 17.919-52.124 8.050-67.043 19.030-70.368 26.82-0.471 1.113-0.739 2.231-0.804 3.334-0.168 2.991 1.951 5.635 4.909 6.118 80.127 13.194 116.060 95.090 117.552 98.568 0.042 0.096 0.083 0.19 0.128 0.285 4.904 9.938 5.863 18.564 2.865 25.635-5.498 12.96-23.434 18.655-35.304 22.42-2.904 0.918-5.659 1.788-7.83 2.646-23.688 9.365-25.661 18.978-24.729 23.878 1.588 8.348 12.745 14.164 21.767 14.164 2.475 0 4.653-0.439 6.484-1.293 10.657-4.992 20.26-7.521 28.547-7.521 11.45 0 16.447 4.812 17.060 5.442-0.291 5.422-0.652 11.086-1.021 16.931-2.386 37.883-5.345 84.955 6.641 111.822 35.92 80.541 112.093 86.797 134.584 86.797 0.576 0 9.86 0.099 9.86 0.099l1.331 0.005c22.541 0 98.881-6.268 134.822-86.853 11.988-26.884 9.022-73.995 6.632-111.849l-0.099-1.645c-0.332-5.271-0.652-10.395-0.919-15.299 0.573-0.583 5.171-5.009 15.551-5.408h0.011c7.89 0.302 16.955 2.816 26.905 7.478 2.915 1.36 6.156 1.647 8.359 1.647 3.369 0 6.781-0.652 9.614-1.835l0.172-0.069c8.048-2.854 13.321-8.493 13.433-14.388 0.105-5.55-4.133-13.895-24.918-22.106-2.155-0.847-4.907-1.721-7.824-2.646-11.885-3.771-29.811-9.463-35.308-22.417-3.004-7.069-2.041-15.691 2.861-25.634 0.043-0.096 0.094-0.188 0.132-0.291 1.492-3.473 37.39-85.347 117.555-98.556 2.96-0.488 5.074-3.128 4.911-6.125-0.072-1.122-0.345-2.254-0.824-3.352z" />
<glyph unicode="&#xe906;" glyph-name="pinterest" d="M512.027 866.835c-245.628 0-444.782-199.1-444.782-444.782 0-182.103 109.511-338.558 266.219-407.357-1.246 31.085-0.217 68.329 7.749 102.124 8.543 36.124 57.221 242.359 57.221 242.359s-14.215 28.394-14.215 70.37c0 65.891 38.202 115.11 85.777 115.11 40.459 0 60.003-30.381 60.003-66.74 0-40.676-25.955-101.491-39.285-157.827-11.126-47.197 23.661-85.687 70.208-85.687 84.26 0 141.030 108.229 141.030 236.47 0 97.482-65.656 170.453-185.065 170.453-134.925 0-218.968-100.606-218.968-212.989 0-38.761 11.433-66.072 29.333-87.24 8.218-9.699 9.374-13.619 6.394-24.763-2.131-8.182-7.026-27.906-9.049-35.709-2.962-11.289-12.084-15.317-22.271-11.144-62.134 25.359-91.088 93.418-91.088 169.929 0 126.327 106.549 277.833 317.877 277.833 169.785 0 281.553-122.895 281.553-254.803 0-174.445-96.976-304.8-239.956-304.8-48.027 0-93.201 25.973-108.662 55.415 0 0-25.829-102.485-31.284-122.245-9.428-34.318-27.906-68.582-44.776-95.278 40.008-11.813 82.255-18.243 126.056-18.243 245.61 0 444.745 199.1 444.745 444.745-0.018 245.7-199.172 444.8-444.763 444.8z" />
<glyph unicode="&#xe907;" glyph-name="behance" d="M686.923 467.679c-57.329 0-65.295-57.221-65.295-57.221h121.884c0 0 0.777 57.221-56.589 57.221zM410.391 410.458h-108.048v-99.198h95.657c1.626 0 4.064-0.036 6.918 0 15.389 0.361 44.559 4.841 44.559 48.226 0 51.495-39.087 50.972-39.087 50.972zM512.027 867.865c-245.646 0-444.782-199.1-444.782-444.745s199.136-444.782 444.782-444.782c245.61 0 444.745 199.136 444.745 444.782 0 245.628-199.154 444.745-444.745 444.745zM605.643 594.584h153.113v-45.697h-153.113v45.697zM528.247 354.862c0-113.268-117.856-109.529-117.856-109.529h-193.121v371.106h193.121c58.666 0 104.977-32.404 104.977-98.8s-56.625-70.623-56.625-70.623c74.651 0 69.503-92.153 69.503-92.153zM814.677 360.931h-192.308c0-68.925 65.295-64.59 65.295-64.59 61.664 0 59.515 39.936 59.515 39.936h65.331c0-105.971-127.031-98.71-127.031-98.71-152.373 0-142.565 141.879-142.565 141.879s-0.144 142.565 142.565 142.565c150.223 0 129.199-161.079 129.199-161.079zM436.635 511.877c0 38.599-26.244 38.599-26.244 38.599h-108.048v-82.797h101.347c17.484 0 32.945 5.617 32.945 44.198z" />
<glyph unicode="&#xe908;" glyph-name="whatsapp" d="M537.379 667.875c-122.399 0-221.945-99.536-221.992-221.882-0.018-41.929 11.715-82.762 33.926-118.092l5.278-8.395-22.417-81.883 83.985 22.030 8.101-4.808c34.070-20.217 73.124-30.915 112.94-30.931h0.090c122.307 0 221.849 99.545 221.898 221.902 0.023 59.291-23.036 115.043-64.93 156.986-41.895 41.94-97.611 65.054-156.88 65.072zM667.901 350.588c-5.558-15.58-32.21-29.802-45.027-31.717-11.495-1.72-26.036-2.435-42.016 2.642-9.688 3.074-22.113 7.18-38.030 14.052-66.918 28.896-110.623 96.273-113.957 100.727-3.334 4.45-27.239 36.171-27.239 69.008 0 32.831 17.235 48.972 23.349 55.651 6.112 6.676 13.341 8.346 17.788 8.346s8.899-0.042 12.784-0.235c4.095-0.208 9.595 1.555 15.011-11.451 5.558-13.359 18.898-46.194 20.567-49.533s2.78-7.234 0.556-11.686c-2.223-4.449-3.334-7.234-6.67-11.128-3.334-3.896-7.006-8.697-10.006-11.686-3.34-3.327-6.817-6.938-2.926-13.613 3.892-6.681 17.28-28.524 37.112-46.214 25.478-22.726 46.974-29.77 53.644-33.11s10.563-2.78 14.453 1.669c3.892 4.452 16.677 19.48 21.124 26.157s8.894 5.563 15.008 3.338c6.114-2.229 38.913-18.364 45.583-21.702 6.67-3.34 11.117-5.010 12.784-7.794 1.667-2.78 1.667-16.137-3.892-31.722zM527.532 881.004c-245.637 0-444.778-199.105-444.778-444.742s199.142-444.778 444.778-444.778c245.619 0 444.76 199.142 444.76 444.778s-199.142 444.742-444.76 444.742zM537.292 178.823c-0.009 0 0.005 0 0 0h-0.11c-44.682 0.016-88.589 11.227-127.581 32.495l-141.529-37.125 37.876 138.345c-23.363 40.488-35.656 86.414-35.636 133.47 0.058 147.199 119.826 266.957 266.979 266.957 71.417-0.029 138.451-27.832 188.855-78.295 50.406-50.462 78.151-117.537 78.124-188.875-0.063-147.2-119.838-266.972-266.977-266.972z" />
<glyph unicode="&#xe909;" glyph-name="soundcloud" d="M512.027 866.835c-245.646 0-444.782-199.1-444.782-444.745s199.136-444.782 444.782-444.782c245.61 0 444.745 199.136 444.745 444.782s-199.154 444.745-444.745 444.745zM213.983 361.708c-0.199-1.409-1.228-2.402-2.493-2.402-1.3 0-2.312 0.993-2.493 2.402l-4.552 34.047 4.552 34.607c0.181 1.445 1.192 2.475 2.493 2.475 1.264 0 2.294-1.030 2.493-2.475l5.401-34.607-5.401-34.047zM237.12 340.991c-0.217-1.481-1.282-2.511-2.601-2.511s-2.402 1.066-2.601 2.547l-6.123 54.71 6.123 55.993c0.181 1.445 1.282 2.511 2.601 2.511s2.384-1.030 2.601-2.511l6.954-55.993-6.954-54.747zM262.137 331.725c-0.181-1.734-1.499-3.034-3.125-3.034-1.644 0-2.962 1.3-3.125 3.071l-5.816 63.994 5.816 66.397c0.163 1.806 1.481 3.107 3.125 3.107 1.608 0 2.944-1.3 3.125-3.107l6.611-66.397-6.611-64.030zM287.351 329.738c-0.181-2.077-1.752-3.594-3.649-3.594-1.933 0-3.522 1.517-3.667 3.594l-5.491 65.981 5.509 68.221c0.144 2.077 1.716 3.631 3.667 3.631 1.897 0 3.45-1.553 3.649-3.594l6.231-68.257-6.25-65.981zM312.765 329.178c-0.163-2.366-1.951-4.136-4.172-4.136-2.258 0-4.064 1.77-4.19 4.136l-5.184 66.541 5.184 63.29c0.144 2.366 1.933 4.154 4.19 4.154 2.222 0 4.028-1.77 4.172-4.1l5.888-63.362-5.888-66.523zM338.395 329.142v0.036c-0.144-2.637-2.222-4.696-4.714-4.696-2.511 0-4.588 2.041-4.714 4.66l-4.877 66.577 4.877 102.973c0.126 2.619 2.204 4.66 4.714 4.66 2.493 0 4.57-2.041 4.714-4.66l5.527-102.973-5.527-66.577zM364.206 329.539v0.036c-0.144-2.926-2.438-5.184-5.256-5.184s-5.13 2.258-5.256 5.148l-4.552 66.144 4.552 126.544c0.126 2.926 2.438 5.184 5.256 5.184s5.112-2.258 5.256-5.184l5.148-126.544-5.148-66.144zM390.234 330.207v0.036c-0.144-3.215-2.673-5.708-5.78-5.708-3.143 0-5.672 2.511-5.78 5.672l-4.245 65.475 4.245 137.092c0.108 3.215 2.637 5.744 5.78 5.744 3.107 0 5.635-2.547 5.78-5.744l4.786-137.092-4.786-65.475zM416.46 330.659v-0.036c-0.144-3.522-2.89-6.25-6.322-6.25s-6.213 2.745-6.322 6.213l-3.919 65.096 3.919 141.716c0.108 3.522 2.89 6.25 6.322 6.25s6.213-2.709 6.322-6.25l4.425-141.716-4.425-65.060c0 0 0 0 0 0.036zM442.885 331.219v0.036c-0.108-3.811-3.107-6.846-6.846-6.846-3.757 0-6.773 3.034-6.846 6.809l-3.612 64.446 3.612 138.085c0.072 3.811 3.089 6.809 6.846 6.809 3.739 0 6.737-2.962 6.846-6.809l4.064-138.085-4.064-64.446zM469.509 331.616v0.072c-0.108-4.136-3.36-7.369-7.369-7.369-4.064 0-7.297 3.251-7.387 7.297l-3.305 64.030 3.305 133.064c0.090 4.136 3.342 7.333 7.387 7.333 4.028 0 7.261-3.215 7.369-7.297l3.685-133.1-3.685-64.030zM496.331 332.032v0.036c-0.072-4.335-3.631-7.911-7.911-7.911-4.299 0-7.839 3.558-7.911 7.875 0 0-2.998 63.543-2.998 63.633l2.998 158.297c0.072 4.335 3.594 7.875 7.911 7.875 4.263 0 7.839-3.54 7.911-7.875l3.342-158.333-3.342-63.597zM523.027 332.917v0.072c-0.072-4.624-3.847-8.399-8.435-8.399s-8.399 3.775-8.453 8.363l-3.45 62.694 3.45 172.657c0.054 4.642 3.865 8.435 8.453 8.435s8.363-3.793 8.435-8.417l3.775-172.675-3.775-62.73zM751.044 324.030c-1.355 0-212.303 0.072-212.502 0.108-4.588 0.452-8.218 4.371-8.291 9.067v243.298c0.072 4.479 1.589 6.773 7.387 9.031 14.883 5.744 31.735 9.176 49.057 9.176 70.659 0 128.585-54.205 134.69-123.293 9.121 3.811 19.164 5.924 29.658 5.924 42.356 0 76.674-34.282 76.674-76.656 0-42.338-34.318-76.656-76.674-76.656z" />
<glyph unicode="&#xe90a;" glyph-name="tumblr" d="M512.009 866.889c-245.646 0-444.782-199.136-444.782-444.782 0-245.682 199.118-444.782 444.782-444.782 245.682 0 444.782 199.1 444.782 444.782 0 245.646-199.118 444.782-444.782 444.782zM667.091 176.047c-23.914-11.217-45.571-19.164-64.988-23.698-19.435-4.552-40.387-6.809-62.929-6.809-25.612 0-40.712 3.215-60.4 9.627-19.652 6.484-36.45 15.768-50.303 27.653-13.926 11.993-23.535 24.763-28.936 38.202-5.364 13.474-8.038 33.018-8.038 58.666v196.39h-76.078v79.311c22 7.135 47.504 17.394 63.145 30.742 15.768 13.366 28.322 29.387 37.822 48.118 9.483 18.658 16.057 42.446 19.616 71.364h79.654v-129.578h129.47v-99.956h-129.47v-143.613c0-32.494-0.415-51.224 2.998-60.4s11.993-18.694 21.35-24.203c12.427-7.405 26.533-11.144 42.518-11.144 28.358 0 56.553 9.248 84.603 27.653v-88.324z" />
<glyph unicode="&#xe90b;" glyph-name="rss" d="M512.009 866.889c-245.646 0-444.782-199.136-444.782-444.782 0-245.682 199.118-444.782 444.782-444.782 245.682 0 444.782 199.1 444.782 444.782 0 245.646-199.118 444.782-444.782 444.782zM374.068 221.437c-32.295 0-58.467 26.208-58.467 58.485 0 32.313 26.172 58.485 58.467 58.485 32.277 0 58.485-26.172 58.485-58.485 0-32.259-26.208-58.485-58.485-58.485zM520.787 221.058c0 55.216-21.35 107.073-60.147 145.979-38.707 38.906-90.166 60.364-145.003 60.364v84.423c159.67 0 289.537-130.463 289.537-290.765h-84.387zM669.909 220.985c0 196.282-158.857 356.024-354.127 356.024v84.459c241.799 0 438.55-197.637 438.55-440.483h-84.423z" />
<glyph unicode="&#xe90c;" glyph-name="vimeo" d="M512.027 866.889c-245.646 0-444.782-199.136-444.782-444.782 0-245.682 199.136-444.782 444.782-444.782s444.745 199.1 444.745 444.782c0 245.646-199.118 444.782-444.745 444.782zM769.648 531.637c-29.712-167.4-195.686-309.098-245.61-341.484-49.96-32.313-95.495 13.023-112.004 47.269-18.911 39.087-75.59 250.992-90.419 268.567-14.847 17.575-59.37-17.575-59.37-17.575l-21.584 28.358c0 0 90.419 107.958 159.218 121.504 72.953 14.251 72.845-112.058 90.419-182.211 16.96-67.878 28.358-106.639 43.187-106.639 14.847 0 43.187 37.786 74.218 95.82 31.085 58.070-1.337 109.367-62.098 72.881 24.312 145.744 253.756 180.803 224.043 13.511z" />
<glyph unicode="&#xe90d;" glyph-name="dribbble" d="M531.083 419.958c3.594 1.192 7.225 2.258 10.873 3.323-6.918 15.66-14.468 31.356-22.361 46.853-141.951-42.518-278.158-39.448-283.035-39.267-0.090-2.962-0.235-5.816-0.235-8.778 0-70.84 26.714-135.394 70.641-184.216-0.036 0.072-0.108 0.144-0.108 0.144s75.464 133.823 224.224 181.94zM496.728 512.563c-47.702 84.784-98.674 153.962-102.34 158.857-76.891-36.305-134.274-107.145-152.156-192.525 7.261-0.072 122.137-1.517 254.496 33.668zM694.076 628.974c-48.551 42.789-112.293 68.763-182.067 68.763-22.397 0-44.126-2.709-64.988-7.731 4.154-5.545 55.957-74.254 103.081-160.844 104.038 39.032 143.305 98.8 143.974 99.812zM445.992 689.735c-0.325-0.036-0.596-0.072-0.921-0.217 0.524 0.144 0.849 0.217 0.849 0.217h0.072zM342.55 204.765l0.054 0.108c-2.041 1.589-4.208 3.034-6.213 4.732 3.667-2.98 6.159-4.841 6.159-4.841zM571.307 488.107c6.412-13.167 12.589-26.533 18.351-39.972 2.005-4.841 3.992-9.555 5.924-14.287 94.718 11.921 188.027-8.146 192.019-8.959-0.632 65.367-24.023 125.334-62.694 172.313-0.542-0.741-44.74-64.645-153.601-109.096zM558.917 376.988c-162.704-56.733-215.807-171.031-216.313-172.115 46.763-36.504 105.465-58.449 169.387-58.449 38.165 0 74.543 7.767 107.633 21.837-4.1 24.095-20.103 108.518-58.919 209.341-0.578-0.235-1.174-0.415-1.788-0.614zM512.009 866.853c-245.646 0-444.782-199.172-444.782-444.782 0-245.646 199.118-444.745 444.782-444.745 245.646 0 444.782 199.1 444.782 444.745 0 245.61-199.154 444.782-444.782 444.782zM809.421 296.413c-8.074-19.164-18.098-37.605-29.766-54.819-11.542-17.105-24.799-33.162-39.412-47.775-14.612-14.576-30.652-27.834-47.738-39.412-17.249-11.65-35.745-21.657-54.855-29.766-19.507-8.218-39.899-14.54-60.635-18.803-21.277-4.371-43.151-6.593-65.024-6.593s-43.747 2.222-65.024 6.593c-20.735 4.263-41.164 10.584-60.635 18.803-19.146 8.11-37.624 18.134-54.873 29.766-17.069 11.578-33.144 24.836-47.738 39.412-14.612 14.612-27.87 30.652-39.412 47.775-11.65 17.213-21.657 35.673-29.766 54.819-8.236 19.507-14.576 39.899-18.839 60.671-4.317 21.277-6.52 43.114-6.52 64.988s2.204 43.747 6.52 64.988c4.263 20.772 10.603 41.2 18.839 60.671 8.11 19.164 18.134 37.642 29.766 54.873 11.542 17.105 24.799 33.126 39.412 47.775 14.594 14.576 30.652 27.798 47.738 39.376 17.249 11.668 35.727 21.693 54.873 29.803 19.471 8.254 39.899 14.576 60.635 18.803 21.277 4.335 43.151 6.557 65.024 6.557s43.747-2.222 65.024-6.557c20.735-4.227 41.128-10.548 60.635-18.803 19.128-8.11 37.605-18.134 54.855-29.803 17.069-11.578 33.126-24.799 47.738-39.376 14.612-14.648 27.87-30.652 39.412-47.775 11.668-17.213 21.693-35.709 29.766-54.873 8.254-19.471 14.576-39.899 18.803-60.671 4.371-21.241 6.593-43.114 6.593-64.988s-2.222-43.711-6.593-64.988c-4.227-20.772-10.53-41.164-18.803-60.671zM612.399 390.355c36.161-99.378 50.827-180.297 53.663-196.914 61.881 41.76 105.863 108.084 118.109 184.921-5.672 1.824-82.797 26.244-171.771 11.993z" />
<glyph unicode="&#xe90e;" glyph-name="flickr" d="M512.009 866.853c-245.646 0-444.782-199.172-444.782-444.782 0-245.646 199.136-444.745 444.782-444.745s444.782 199.1 444.782 444.745c0 245.61-199.154 444.782-444.782 444.782zM341.448 284.275c-77.324 0-140 62.622-140 139.946 0 77.36 62.676 139.982 140 139.982s139.982-62.622 139.982-139.982c-0.018-77.324-62.658-139.946-139.982-139.946zM692.703 284.275c-77.324 0-139.982 62.622-139.982 139.946 0 77.36 62.658 139.982 139.982 139.982 77.288 0 139.982-62.622 139.982-139.982 0-77.324-62.694-139.946-139.982-139.946z" />
<glyph unicode="&#xe90f;" glyph-name="skype" d="M613.699 422.848c-11.885 7.767-26.533 14.432-43.422 19.832-16.726 5.364-35.601 10.332-56.155 14.703-16.22 3.775-28.087 6.665-35.131 8.616-6.918 1.897-13.8 4.588-20.464 7.965-6.412 3.215-11.542 7.062-15.136 11.506-3.414 4.154-5.075 8.995-5.075 14.775 0 9.392 5.148 17.394 15.768 24.348 10.964 7.189 25.793 10.873 44 10.873 19.616 0 33.867-3.323 42.446-9.844 8.742-6.665 16.437-16.166 22.794-28.195 5.473-9.392 10.368-15.985 15.136-20.139 5.112-4.552 12.481-6.846 21.873-6.846 10.368 0 19.164 3.667 26.1 10.91 6.918 7.153 10.404 15.425 10.404 24.51 0 9.41-2.673 19.182-7.929 28.972-5.22 9.736-13.547 19.056-24.691 27.762-11.072 8.688-25.215 15.714-41.94 20.97-16.653 5.148-36.576 7.803-59.298 7.803-28.358 0-53.446-3.992-74.507-11.777-21.386-7.911-37.967-19.417-49.31-34.228-11.433-14.919-17.249-32.205-17.249-51.405 0-20.139 5.527-37.244 16.473-50.935 10.729-13.402 25.395-24.131 43.602-31.898 17.809-7.586 40.225-14.251 66.577-19.941 19.399-4.064 35.059-7.929 46.6-11.542 11.072-3.45 20.212-8.507 27.093-14.955 6.593-6.177 9.844-14.070 9.844-24.095 0-12.698-6.141-23.029-18.803-31.681-12.951-8.85-30.164-13.33-51.188-13.33-15.244 0-27.689 2.222-36.901 6.557-9.139 4.335-16.292 9.88-21.277 16.509-5.184 6.846-10.097 15.515-14.612 25.829-4.028 9.447-9.031 16.834-14.883 21.765-6.105 5.184-13.655 7.803-22.361 7.803-10.657 0-19.543-3.323-26.533-9.88-7.026-6.557-10.584-14.667-10.584-23.987 0-14.847 5.491-30.344 16.256-45.86 10.693-15.425 24.745-27.906 41.814-37.118 23.878-12.662 54.476-19.128 90.943-19.128 30.417 0 57.113 4.732 79.383 13.962 22.505 9.392 39.863 22.542 51.604 39.123 11.813 16.762 17.773 35.799 17.773 56.733 0 17.466-3.45 32.53-10.332 44.74-6.9 12.12-16.545 22.307-28.701 30.218zM511.991 866.853c-245.628 0-444.763-199.172-444.763-444.782 0-245.646 199.118-444.745 444.763-444.745 245.682 0 444.782 199.1 444.782 444.745 0 245.61-199.118 444.782-444.782 444.782zM620.743 145.323c-25.161 0-48.894 6.358-69.612 17.502-15.1-2.745-30.615-4.227-46.492-4.227-140.307 0-254.027 113.738-254.027 253.991 0 17.502 1.752 34.571 5.13 51.080-12.842 21.873-20.248 47.305-20.248 74.507 0 81.352 65.927 147.333 147.297 147.333 28.863 0 55.668-8.327 78.39-22.65 14.107 2.475 28.647 3.739 43.458 3.739 140.271 0 253.991-113.738 253.991-254.009 0-18.694-2.041-36.937-5.888-54.512 9.808-19.724 15.353-41.904 15.353-65.439 0-81.352-65.963-147.315-147.351-147.315z" />
<glyph unicode="&#xe910;" glyph-name="vine" d="M511.771 867.534c-245.637 0-444.78-199.107-444.78-444.745 0-245.64 199.143-444.782 444.78-444.782 245.621 0 444.763 199.141 444.763 444.782 0 245.639-199.143 444.745-444.763 444.745zM621.744 596.587c-20.977 0-35.814-19.953-35.814-58.325 0-78.283 49.633-123.305 114.095-123.305 11.46 0 24.193 1.338 37.354 4.373v-60.824c-21.483-4.853-43.055-6.916-61.012-6.965-42.777-90.385-119.953-167.547-145.655-182.163-16.373-9.214-31.791-9.725-49.698 1.021-31.656 18.889-151.379 117.256-191.553 426.188h86.953c21.864-185.493 75.148-280.546 134.087-351.796 32.487 32.501 63.635 75.634 88.115 124.604-58.216 29.537-93.521 94.364-93.521 169.886 0 76.235 44.003 134.050 119.209 134.050 73.166 0 113.077-45.535 113.077-123.816 0-29.091-6.269-62.255-17.804-87.862-54.32-10.635-74.185 24.019-74.185 24.019 4.084 13.391 9.616 36.027 9.616 56.683-0.002 36.325-13.306 54.232-33.263 54.232z" />
<glyph unicode="&#xe911;" glyph-name="deviantart" d="M316.034 359.667l95.712 25.829-42.844 87.638c-80.539-52.362-52.868-113.467-52.868-113.467zM512.009 866.853c-245.646 0-444.782-199.1-444.782-444.763 0-245.646 199.118-444.782 444.782-444.782 245.646 0 444.782 199.136 444.782 444.782 0 245.664-199.154 444.763-444.782 444.763zM558.844 357.012l-66.397 134.907c32.024 5.364 62.116 3.847 88.541-1.030l28.087-52.182 97.464 26.353c0 0-118.289 83.213-259.933 42.518l78.914-160.157-287.225-82.725c0 0-83.411 183.295 104.851 261.017l-36.413 74.488 89.281 10.133 30.128-61.177c1.806 0.325 3.396 0.741 5.22 1.030 310.236 52.814 414.274-110.523 414.274-110.523l-286.792-82.653z" />
<glyph unicode="&#xe912;" glyph-name="calendario" horiz-adv-x="1020" d="M26.145 755.2c21.7 44.59 39.609 54.769 91.637 50.246 0-8.876-0.296-18.057 0.052-27.208 1.399-36.681 27.064-62.821 61.44-62.817 33.884 0.004 58.917 24.654 61.061 60.534 0.553 9.29 0.087 18.646 0.087 29.474 122.945 0 243.729 0 364.439 0 12.837-71.257 26.816-90.369 65.575-89.994 38.363 0.366 54.076 22.602 63.122 89.293 56.477 8.989 89.057-18.72 89.079-75.872 0.044-74.656 0.013-149.317 0.013-225.624-20.131 0-38.616 0-59.706 0 0 38.855 0 78.351 0 119.272-225.829 0-449.092 0-674.38 0-0.453-5.787-1.351-11.996-1.355-18.201-0.083-129.238 0.248-258.479-0.423-387.721-0.092-17.826 4.693-23.674 23.090-23.526 105.999 0.802 212.012 0.392 318.015 0.388 7.848 0 15.7 0 24.829 0 0-20.393 0-38.912 0-60.442-7.974 0-15.696 0-23.417 0-106.008 0-212.033 1.181-318.006-0.588-41.365-0.697-69.954 12.994-85.153 51.963 0 190.277 0 380.549 0 570.826zM604.683 5.44c-77.262 63.344-108.004 172.768-74.36 269.935 33.321 96.278 124.009 162.088 224.461 162.916 128.397 1.055 226.788-80.896 248.496-206.879 16.362-153.783-62.072-235.123-158.541-267.817-55.313-15.238-141.011-34.119-240.056 41.845zM764.409 377.61c-101.912 1.739-184.595-78.552-186.512-181.109-1.839-98.971 79.515-184.333 177.392-186.12 102.831-1.882 188.316 78.286 189.98 178.163 1.717 103.873-78.085 187.3-180.86 189.065zM679.762 929.498c15.229-8.946 20.75-22.057 20.253-39.762-0.976-34.729-0.161-69.506-0.322-104.265-0.126-26.663-9.643-38.973-29.735-39.165-20.972-0.205-30.027 11.203-30.075 38.237-0.078 34.759 0.989 69.558-0.449 104.256-0.732 17.739 4.715 30.607 18.541 40.699 7.26 0 14.528 0 21.787 0zM191.728 929.498c13.966-11.19 18.824-25.182 18.070-43.444-1.46-35.452-0.205-71.009-0.519-106.518-0.183-21.173-10.584-32.646-28.938-33.234-18.855-0.61-31.269 11.791-31.535 33.287-0.479 38.407 0.231 76.831-0.314 115.233-0.235 16.693 8.148 26.929 21.447 34.677 7.264 0 14.523 0 21.787 0zM269.778 375.1c0-39.653 0-77.937 0-117.708-40.171 0-79.619 0-120.096 0 0 39.374 0 77.58 0 117.708 39.256 0 78.591 0 120.096 0zM453.196 375.557c0-40.206 0-78.451 0-118.174-39.605 0-78.343 0-118.653 0 0 39.3 0 77.994 0 118.174 39.23 0 77.933 0 118.653 0zM150.28 559.93c40.167 0 78.983 0 119.015 0 0-39.84 0-78.53 0-118.444-39.77 0-78.578 0-119.015 0 0 38.79 0 77.432 0 118.444zM452.883 441.446c-40.023 0-78.709 0-118.557 0 0 39.866 0 78.56 0 118.331 40.023 0 78.695 0 118.557 0 0-39.378 0-77.48 0-118.331zM519.216 560.121c40.036 0 78.194 0 117.634 0 0-39.592 0-78.247 0-118.379-39.422 0-78.038 0-117.634 0 0 39.853 0 79.001 0 118.379zM761.207 193.434c30.289 0 58.372 0.105 86.452-0.039 23.112-0.118 36.816-11.839 36.306-30.633-0.497-18.288-13.356-29.478-35.526-29.674-37.705-0.331-75.427-0.383-113.128 0.017-24.053 0.257-34.058 10.628-34.206 34.733-0.231 37.709-0.17 75.423-0.035 113.132 0.092 23.709 9.203 34.424 28.977 34.781 20.528 0.357 30.816-11.055 31.086-35.5 0.314-28.11 0.074-56.224 0.074-86.818z" />
<glyph unicode="&#xe913;" glyph-name="menu" horiz-adv-x="1333" d="M0 960h1332.882v-226.009h-1332.882v226.009zM0 561.004h1332.882v-226.009h-1332.882v226.009zM0 162.009h1332.882v-226.009h-1332.882v226.009z" />
<glyph unicode="&#xe914;" glyph-name="search" horiz-adv-x="1016" d="M629.258 223.268c-188.577 0-341.99 153.413-341.99 341.99s153.413 341.978 341.99 341.978 341.99-153.413 341.99-341.99-153.425-341.978-341.99-341.978zM629.258 778.259c-117.463 0-213.012-95.549-213.012-213.012s95.549-213.012 213.012-213.012 213.012 95.561 213.012 213.012-95.561 213.012-213.012 213.012zM399.276 471.465l138.185-138.185-342.688-342.688-138.185 138.185 342.688 342.688z" />
<glyph unicode="&#xe915;" glyph-name="tags" horiz-adv-x="1088" d="M992 896h-224c-52.8 0-126.546-30.546-163.882-67.882l-376.236-376.236c-37.334-37.334-37.334-98.428 0-135.764l280.236-280.232c37.334-37.336 98.428-37.336 135.764 0l376.232 376.232c37.34 37.336 67.886 111.082 67.886 163.882v224c0 52.8-43.2 96-96 96zM864 576c-53.020 0-96 42.98-96 96s42.98 96 96 96 96-42.98 96-96-42.98-96-96-96zM86.626 361.374l342.378-342.378c-36.264-19.16-82.462-13.54-112.886 16.888l-280.236 280.234c-37.334 37.336-37.334 98.43 0 135.764l376.236 376.236c37.336 37.336 111.082 67.882 163.882 67.882l-489.374-489.372c-12.444-12.446-12.444-32.808 0-45.254z" />
<glyph unicode="&#xe916;" glyph-name="share" d="M512 845.232c-219.024 0-397.216-178.192-397.216-397.216 0-219.040 178.192-397.248 397.216-397.248s397.216 178.208 397.216 397.248c0 219.024-178.192 397.216-397.216 397.216zM407.744 448.704c0-4-0.4-7.904-0.976-11.744l167.152-81.84c14.304 15.040 34.464 24.464 56.864 24.464 43.376 0 78.528-35.152 78.528-78.528s-35.152-78.528-78.528-78.528-78.528 35.152-78.528 78.528c0 4 0.4 7.904 0.976 11.744l-167.152 81.84c-14.304-15.040-34.464-24.464-56.864-24.464-43.376 0-78.528 35.152-78.528 78.528s35.152 78.528 78.528 78.528c22.496 0 42.736-9.52 57.056-24.672l166.912 80.944c-0.544 3.744-0.928 7.552-0.928 11.456 0 43.376 35.152 78.528 78.528 78.528s78.528-35.152 78.528-78.528-35.152-78.528-78.528-78.528c-22.496 0-42.736 9.52-57.056 24.672l-166.912-80.944c0.56-3.76 0.928-7.552 0.928-11.456z" />
</font>
</defs>
</svg>
